<?xml version="1.0" encoding="utf-8"?>
<!-- Generator: Adobe Illustrator 24.0.1, SVG Export Plug-In . SVG Version: 6.00 Build 0)  -->
<svg version="1.1" id="Layer_1" xmlns="http://www.w3.org/2000/svg" xmlns:xlink="http://www.w3.org/1999/xlink" x="0px" y="0px"
	 viewBox="0 0 168 45" style="enable-background:new 0 0 168 45;" xml:space="preserve">
<style type="text/css">
	.st0{fill:#FFFFFF;}
</style>
<g>
	<g>
		<g>
			<path class="st0" d="M23.4,25.4c-1.6,0-3.1,0.7-4.1,1.8c-0.8-1.1-2.1-1.8-3.7-1.8c-1.3,0-2.5,0.4-3.3,1.2
				c-0.2-0.7-0.8-1.2-1.6-1.2c-0.9,0-1.7,0.7-1.7,1.7v9.5c0,1,0.7,1.7,1.7,1.7c0.9,0,1.7-0.7,1.7-1.7v-5.7c0-1.4,0.9-2.4,2.3-2.4
				c1.3,0,2.2,0.9,2.2,2.4v5.7c0,1,0.7,1.7,1.7,1.7c0.9,0,1.7-0.7,1.7-1.7v-5.8c0-1.4,0.9-2.3,2.3-2.3c1.3,0,2.2,0.9,2.2,2.4v5.7
				c0,1,0.7,1.7,1.7,1.7c0.9,0,1.7-0.7,1.7-1.7v-6.2C28,27.3,26.2,25.4,23.4,25.4z"/>
			<path class="st0" d="M35.2,25.4c-1.8,0-3.4,0.5-4.4,1.5c-0.4,0.4-0.7,0.9-0.7,1.3c0,0.7,0.6,1.4,1.4,1.4c0.3,0,0.6-0.1,1-0.4
				c0.7-0.6,1.5-0.9,2.4-0.9c1.5,0,2.3,0.8,2.3,2.2v0.5h-3.1c-2.9,0-4.6,1.4-4.6,3.6c0,2.2,1.7,3.7,4.3,3.7c1.5,0,2.7-0.5,3.6-1.3
				c0.1,0.7,0.8,1.3,1.6,1.3c0.9,0,1.6-0.7,1.6-1.7v-5.9C40.5,27.3,38.6,25.4,35.2,25.4z M37.2,33.4c0,1.4-1.1,2.4-2.6,2.4
				c-1.1,0-1.8-0.5-1.8-1.3c0-0.8,0.6-1.2,1.7-1.2h2.6V33.4z"/>
			<path class="st0" d="M15.3,12.5c0-3.2-2.4-5.3-5.9-5.3H5c-1,0-1.7,0.7-1.7,1.7v13.3c0,1,0.7,1.7,1.7,1.7c0.9,0,1.7-0.7,1.7-1.7
				v-4.4h2.8C12.9,17.8,15.3,15.6,15.3,12.5z M6.6,14.8v-4.7h2.8c1.5,0,2.5,0.9,2.5,2.3c0,1.5-0.9,2.4-2.5,2.4H6.6z"/>
			<path class="st0" d="M20.4,16.6c-2.9,0-4.6,1.4-4.6,3.6c0,2.2,1.7,3.7,4.2,3.7c1.5,0,2.7-0.5,3.6-1.3c0.1,0.7,0.8,1.3,1.6,1.3
				c0.9,0,1.6-0.7,1.6-1.7v-5.9c0-3.4-1.9-5.3-5.3-5.3c-1.8,0-3.4,0.5-4.4,1.5c-0.4,0.4-0.7,0.9-0.7,1.3c0,0.7,0.6,1.4,1.4,1.4
				c0.3,0,0.6-0.1,1-0.4c0.7-0.6,1.5-0.9,2.4-0.9c1.5,0,2.3,0.8,2.3,2.2v0.5H20.4z M23.5,19c0,1.4-1.1,2.4-2.6,2.4
				c-1.1,0-1.8-0.5-1.8-1.3c0-0.8,0.6-1.2,1.7-1.2h2.6V19z"/>
			<path class="st0" d="M30.7,23.9c1,0,1.7-0.7,1.7-1.7v-9.5c0-1-0.7-1.7-1.7-1.7c-1,0-1.7,0.7-1.7,1.7v9.5
				C29.1,23.1,29.8,23.9,30.7,23.9z"/>
			<path class="st0" d="M49.8,25.4c-1.6,0-2.9,0.6-3.8,1.6c0,0,0,0,0,0V15.9c0-3-1.8-4.9-4.6-4.9c-1.4,0-2.6,0.5-3.5,1.3
				c-0.2-0.7-0.8-1.3-1.6-1.3c-0.9,0-1.7,0.7-1.7,1.7v9.5c0,1,0.7,1.7,1.7,1.7c0.9,0,1.7-0.7,1.7-1.7v-5.8c0-1.4,1-2.4,2.3-2.4
				s2.3,1,2.3,2.4v12.7c0,0,0,0,0,0v13.7c0,1,0.8,1.7,1.7,1.7c0.9,0,1.7-0.7,1.7-1.7v-6c0.8,0.9,2.1,1.5,3.7,1.5c3.5,0,6-2.7,6-6.5
				S53.3,25.4,49.8,25.4z M38.8,13.4c-0.8,0.4-1.2,0.8-1.2,0.8c0,0-0.1,0.1-0.1,0.1c0,0-0.1,0-0.1-0.1c-0.1-0.1-0.1-0.2,0-0.3
				c0,0,0.5-0.5,1.3-0.9c0.1,0,0.2,0,0.3,0.1C39,13.2,38.9,13.4,38.8,13.4z M41.9,12.9c0,0.1-0.1,0.1-0.2,0.1c0,0,0,0-0.1,0
				c-0.5-0.1-1-0.2-1.5-0.1c-0.1,0-0.2-0.1-0.2-0.2c0-0.1,0.1-0.2,0.2-0.2c0.5-0.1,1.1,0,1.6,0.1C41.9,12.7,42,12.8,41.9,12.9z
				 M44.2,14.9C44.1,14.9,44.1,14.9,44.2,14.9c-0.2,0-0.2,0-0.3-0.1c-0.3-0.7-0.7-1.1-0.8-1.2c-0.1-0.1-0.1-0.2,0-0.3s0.2-0.1,0.3,0
				c0.2,0.2,0.6,0.5,0.9,1.3C44.3,14.7,44.3,14.9,44.2,14.9z M44.4,16c0.1,0,0.2,0.1,0.2,0.2c0,0.3,0,0.6,0,0.9c0,0.1,0,0.1,0,0.2
				c0,0.1,0,0.3,0,0.5c0,0.1-0.1,0.2-0.2,0.2c0,0,0,0,0,0c-0.1,0-0.2-0.1-0.2-0.2c0-0.2,0-0.3,0-0.5c0-0.1,0-0.1,0-0.2
				c0-0.3,0-0.6,0-0.9C44.2,16.1,44.3,16.1,44.4,16z M44.3,20.3l0-0.9c0-0.1,0.1-0.2,0.2-0.2h0c0.1,0,0.2,0.1,0.2,0.2l0,0.9l0,0.6
				c0,0.1-0.1,0.2-0.2,0.2h0c-0.1,0-0.2-0.1-0.2-0.2L44.3,20.3z M44.3,22.5c0-0.1,0.1-0.2,0.2-0.2c0,0,0,0,0,0
				c0.1,0,0.2,0.1,0.2,0.2l0,1.6c0,0.1-0.1,0.2-0.2,0.2c0,0,0,0,0,0c-0.1,0-0.2-0.1-0.2-0.2L44.3,22.5z M44.3,25.6
				c0-0.1,0.1-0.2,0.2-0.2c0,0,0,0,0,0c0.1,0,0.2,0.1,0.2,0.2l0,1.6c0,0.1-0.1,0.2-0.2,0.2c0,0,0,0,0,0c-0.1,0-0.2-0.1-0.2-0.2
				L44.3,25.6z M44.3,28.7c0-0.1,0.1-0.2,0.2-0.2c0,0,0,0,0,0c0.1,0,0.2,0.1,0.2,0.2l0,1.6c0,0.1-0.1,0.2-0.2,0.2c0,0,0,0,0,0
				c-0.1,0-0.2-0.1-0.2-0.2L44.3,28.7z M44.3,31.9c0-0.1,0.1-0.2,0.2-0.2c0,0,0,0,0,0c0.1,0,0.2,0.1,0.2,0.2l0,1.6
				c0,0.1-0.1,0.2-0.2,0.2c0,0,0,0,0,0c-0.1,0-0.2-0.1-0.2-0.2L44.3,31.9z M44.3,35c0-0.1,0.1-0.2,0.2-0.2c0,0,0,0,0,0
				c0.1,0,0.2,0.1,0.2,0.2l0,1.6c0,0.1-0.1,0.2-0.2,0.2c0,0,0,0,0,0c-0.1,0-0.2-0.1-0.2-0.2L44.3,35z M44.3,38.1
				c0-0.1,0.1-0.2,0.2-0.2c0,0,0,0,0,0c0.1,0,0.2,0.1,0.2,0.2l0,1.6c0,0.1-0.1,0.2-0.2,0.2c0,0,0,0,0,0c-0.1,0-0.2-0.1-0.2-0.2
				L44.3,38.1z M44.7,42.8c0,0.1-0.1,0.2-0.2,0.2s-0.2-0.1-0.2-0.2v-1.6c0-0.1,0.1-0.2,0.2-0.2s0.2,0.1,0.2,0.2V42.8z M49.2,35.3
				c-1.8,0-3.1-1.4-3.1-3.4c0-2,1.2-3.4,3.1-3.4c1.9,0,3.2,1.4,3.2,3.4C52.4,33.8,51,35.3,49.2,35.3z"/>
		</g>
		<g>
			<path class="st0" d="M29.4,6.1l-0.7,1.2l1.2-0.8l0.5,1.7C29,8,28,7,27.8,5.7l-0.6-0.1c0.1,1.8,1.5,3.2,3.3,3.3l0.3,1.1V5.2
				l-1,0.9L29.4,6.1z"/>
			<path class="st0" d="M32.1,4.4l0.7-1.2L31.7,4l-0.5-1.7c1.3,0.2,2.3,1.2,2.5,2.5L34.3,5c-0.1-1.8-1.5-3.2-3.3-3.3l-0.3-1.1v1.1
				l0,0v0.6l0,0v3l1-0.9L32.1,4.4z"/>
			<path class="st0" d="M35.5,5.2h-1.1h-0.6h-3l0.9,1l-0.1,0.4l1.2,0.7L32,6.2l1.7-0.5C33.5,7,32.5,8,31.2,8.2L31,8.8
				c1.8-0.1,3.2-1.5,3.3-3.3L35.5,5.2z"/>
			<path class="st0" d="M29.9,3.9l-1.2-0.7l0.8,1.2l-1.7,0.5C28,3.5,29,2.5,30.3,2.3l0.1-0.6c-1.8,0.1-3.2,1.5-3.3,3.3L26,5.2h1.1
				h0.6h3l-0.9-1L29.9,3.9z"/>
		</g>
	</g>
	<g>
		<path class="st0" d="M62.4,29.5l-1.8,3v1.9c0,0.2-0.1,0.3-0.3,0.3c-0.2,0-0.3-0.2-0.3-0.3v-1.9l-1.8-2.9C58,29.4,58,29.3,58,29.2
			c0-0.2,0.1-0.3,0.3-0.3c0.1,0,0.2,0.1,0.3,0.2l1.6,2.6l1.6-2.6c0.1-0.1,0.2-0.2,0.3-0.2c0.2,0,0.3,0.1,0.3,0.3
			C62.5,29.3,62.4,29.4,62.4,29.5z"/>
		<path class="st0" d="M66.9,32.6c0,1.2-1,2.2-2.2,2.2c-1.2,0-2.2-1-2.2-2.2c0-1.2,1-2.2,2.2-2.2C65.9,30.4,66.9,31.3,66.9,32.6z
			 M63.2,32.6c0,0.9,0.6,1.5,1.5,1.5c0.8,0,1.5-0.7,1.5-1.5c0-0.9-0.6-1.6-1.5-1.6C63.8,31,63.2,31.7,63.2,32.6z"/>
		<path class="st0" d="M68,33v-2.2c0-0.2,0.1-0.3,0.3-0.3c0.2,0,0.3,0.2,0.3,0.3V33c0,0.6,0.4,1.1,1.1,1.1c0.6,0,1.1-0.5,1.1-1.1
			v-2.3c0-0.2,0.1-0.3,0.3-0.3c0.2,0,0.3,0.1,0.3,0.3V33c0,1-0.7,1.7-1.7,1.7C68.7,34.7,68,34,68,33z"/>
		<path class="st0" d="M75.1,30.8c0,0.2-0.1,0.3-0.3,0.3c-0.7,0-1.3,0.5-1.3,1.2v2.1c0,0.2-0.1,0.3-0.3,0.3c-0.2,0-0.3-0.2-0.3-0.3
			v-3.6c0-0.2,0.1-0.3,0.3-0.3c0.2,0,0.3,0.2,0.3,0.3V31c0.3-0.4,0.8-0.6,1.3-0.6C74.9,30.5,75.1,30.6,75.1,30.8z"/>
		<path class="st0" d="M80.5,30.8c0,0.2-0.1,0.3-0.3,0.3c-0.7,0-1.3,0.5-1.3,1.2v2.1c0,0.2-0.1,0.3-0.3,0.3c-0.2,0-0.3-0.2-0.3-0.3
			v-3.6c0-0.2,0.1-0.3,0.3-0.3c0.2,0,0.3,0.2,0.3,0.3V31c0.3-0.4,0.8-0.6,1.3-0.6C80.4,30.5,80.5,30.6,80.5,30.8z"/>
		<path class="st0" d="M85.3,32.6c0,1.2-1,2.2-2.2,2.2c-1.2,0-2.2-1-2.2-2.2c0-1.2,1-2.2,2.2-2.2C84.3,30.4,85.3,31.3,85.3,32.6z
			 M81.6,32.6c0,0.9,0.6,1.5,1.5,1.5c0.8,0,1.5-0.7,1.5-1.5c0-0.9-0.6-1.6-1.5-1.6C82.2,31,81.6,31.7,81.6,32.6z"/>
		<path class="st0" d="M89.5,32.1v2.3c0,0.2-0.1,0.3-0.3,0.3c-0.2,0-0.3-0.2-0.3-0.3v-0.2c-0.3,0.4-0.8,0.6-1.4,0.6
			c-0.9,0-1.4-0.5-1.4-1.2s0.6-1.2,1.5-1.2h1.3V32c0-0.7-0.4-1-1-1c-0.4,0-0.7,0.2-1,0.5c-0.1,0.1-0.2,0.1-0.3,0.1
			c-0.2,0-0.3-0.1-0.3-0.3c0-0.1,0-0.2,0.1-0.3c0.4-0.4,0.9-0.6,1.5-0.6C88.9,30.4,89.5,31,89.5,32.1z M88.9,33v-0.1h-1.2
			c-0.6,0-0.9,0.2-0.9,0.6c0,0.4,0.3,0.6,0.9,0.6C88.3,34.2,88.9,33.7,88.9,33z"/>
		<path class="st0" d="M94.8,28.5v5.9c0,0.2-0.1,0.3-0.3,0.3c-0.2,0-0.3-0.2-0.3-0.3V34c-0.3,0.4-0.9,0.7-1.5,0.7
			c-1.2,0-2-0.9-2-2.2c0-1.2,0.9-2.2,2-2.2c0.6,0,1.2,0.3,1.5,0.7v-2.6c0-0.2,0.1-0.3,0.3-0.3C94.7,28.2,94.8,28.3,94.8,28.5z
			 M94.2,32.6c0-0.9-0.6-1.6-1.4-1.6c-0.8,0-1.5,0.7-1.5,1.6c0,0.9,0.6,1.6,1.5,1.6C93.6,34.1,94.2,33.5,94.2,32.6z"/>
		<path class="st0" d="M102.3,32v2.4c0,0.2-0.1,0.3-0.3,0.3c-0.2,0-0.3-0.2-0.3-0.3v-2.3c0-0.7-0.4-1.1-1-1.1
			c-0.6,0-1.1,0.5-1.1,1.1v2.3c0,0.2-0.1,0.3-0.3,0.3c-0.2,0-0.3-0.2-0.3-0.3v-2.3c0-0.7-0.4-1.1-1-1.1c-0.6,0-1.1,0.5-1.1,1.1v2.3
			c0,0.2-0.1,0.3-0.3,0.3c-0.2,0-0.3-0.2-0.3-0.3v-3.6c0-0.2,0.1-0.3,0.3-0.3c0.2,0,0.3,0.2,0.3,0.3v0.1c0.3-0.3,0.7-0.5,1.2-0.5
			c0.6,0,1,0.3,1.3,0.7c0.3-0.4,0.8-0.7,1.4-0.7C101.7,30.4,102.3,31,102.3,32z"/>
		<path class="st0" d="M106.8,32.1v2.3c0,0.2-0.1,0.3-0.3,0.3c-0.2,0-0.3-0.2-0.3-0.3v-0.2c-0.3,0.4-0.8,0.6-1.4,0.6
			c-0.9,0-1.4-0.5-1.4-1.2s0.6-1.2,1.5-1.2h1.3V32c0-0.7-0.4-1-1-1c-0.4,0-0.7,0.2-1,0.5c-0.1,0.1-0.2,0.1-0.3,0.1
			c-0.2,0-0.3-0.1-0.3-0.3c0-0.1,0-0.2,0.1-0.3c0.4-0.4,0.9-0.6,1.5-0.6C106.2,30.4,106.8,31,106.8,32.1z M106.1,33v-0.1h-1.2
			c-0.6,0-0.9,0.2-0.9,0.6c0,0.4,0.3,0.6,0.9,0.6C105.6,34.2,106.1,33.7,106.1,33z"/>
		<path class="st0" d="M112.4,32.6c0,1.2-0.9,2.2-2,2.2c-0.6,0-1.2-0.3-1.5-0.7v1.9c0,0.2-0.1,0.3-0.3,0.3c-0.2,0-0.3-0.2-0.3-0.3
			v-5.2c0-0.2,0.1-0.3,0.3-0.3c0.2,0,0.3,0.1,0.3,0.3v0.4c0.3-0.4,0.9-0.7,1.5-0.7C111.5,30.4,112.4,31.3,112.4,32.6z M111.7,32.6
			c0-0.9-0.6-1.6-1.5-1.6c-0.9,0-1.4,0.6-1.4,1.6c0,0.9,0.6,1.6,1.4,1.6C111.1,34.1,111.7,33.5,111.7,32.6z"/>
		<path class="st0" d="M118.3,34.4c0,0.2-0.1,0.3-0.2,0.3c-0.1,0-0.3,0.1-0.5,0.1c-0.9,0-1.4-0.5-1.4-1.3v-2.3h-0.4
			c-0.2,0-0.3-0.1-0.3-0.3c0-0.2,0.1-0.3,0.3-0.3h0.4v-0.9c0-0.2,0.1-0.3,0.3-0.3c0.2,0,0.3,0.1,0.3,0.3v0.9h1
			c0.2,0,0.3,0.1,0.3,0.3c0,0.2-0.1,0.3-0.3,0.3h-1v2.3c0,0.5,0.3,0.8,0.9,0.8c0.1,0,0.2,0,0.3,0C118.2,34.1,118.3,34.2,118.3,34.4z
			"/>
		<path class="st0" d="M123.1,32.6c0,1.2-1,2.2-2.2,2.2c-1.2,0-2.2-1-2.2-2.2c0-1.2,1-2.2,2.2-2.2C122.2,30.4,123.1,31.3,123.1,32.6
			z M119.5,32.6c0,0.9,0.6,1.5,1.5,1.5c0.8,0,1.5-0.7,1.5-1.5c0-0.9-0.6-1.6-1.5-1.6C120.1,31,119.5,31.7,119.5,32.6z"/>
		<path class="st0" d="M130.9,32.6c0,1.2-0.9,2.2-2,2.2c-0.6,0-1.2-0.3-1.5-0.7v1.9c0,0.2-0.1,0.3-0.3,0.3c-0.2,0-0.3-0.2-0.3-0.3
			v-5.2c0-0.2,0.1-0.3,0.3-0.3c0.2,0,0.3,0.1,0.3,0.3v0.4c0.3-0.4,0.9-0.7,1.5-0.7C130,30.4,130.9,31.3,130.9,32.6z M130.2,32.6
			c0-0.9-0.6-1.6-1.5-1.6c-0.9,0-1.4,0.6-1.4,1.6c0,0.9,0.6,1.6,1.4,1.6C129.6,34.1,130.2,33.5,130.2,32.6z"/>
		<path class="st0" d="M135.1,32.1v2.3c0,0.2-0.1,0.3-0.3,0.3c-0.2,0-0.3-0.2-0.3-0.3v-0.2c-0.3,0.4-0.8,0.6-1.4,0.6
			c-0.9,0-1.4-0.5-1.4-1.2s0.6-1.2,1.5-1.2h1.3V32c0-0.7-0.4-1-1-1c-0.4,0-0.7,0.2-1,0.5c-0.1,0.1-0.2,0.1-0.3,0.1
			c-0.2,0-0.3-0.1-0.3-0.3c0-0.1,0-0.2,0.1-0.3c0.4-0.4,0.9-0.6,1.5-0.6C134.5,30.4,135.1,31,135.1,32.1z M134.5,33v-0.1h-1.2
			c-0.6,0-0.9,0.2-0.9,0.6c0,0.4,0.3,0.6,0.9,0.6C133.9,34.2,134.5,33.7,134.5,33z"/>
		<path class="st0" d="M137.3,28.9c0,0.3-0.2,0.5-0.5,0.5c-0.3,0-0.5-0.2-0.5-0.5c0-0.3,0.2-0.5,0.5-0.5
			C137.1,28.4,137.3,28.7,137.3,28.9z M136.5,34.4v-3.6c0-0.2,0.1-0.3,0.3-0.3c0.2,0,0.3,0.2,0.3,0.3v3.6c0,0.2-0.2,0.3-0.3,0.3
			C136.6,34.7,136.5,34.6,136.5,34.4z"/>
		<path class="st0" d="M142,32v2.4c0,0.2-0.1,0.3-0.3,0.3c-0.2,0-0.3-0.2-0.3-0.3v-2.3c0-0.7-0.4-1.1-1-1.1c-0.6,0-1.1,0.5-1.1,1.1
			v2.3c0,0.2-0.1,0.3-0.3,0.3c-0.2,0-0.3-0.2-0.3-0.3v-3.6c0-0.2,0.1-0.3,0.3-0.3c0.2,0,0.3,0.2,0.3,0.3v0.2
			c0.3-0.3,0.7-0.5,1.2-0.5C141.4,30.4,142,31,142,32z"/>
		<path class="st0" d="M148.1,30.8c0,0.2-0.1,0.3-0.3,0.3c-0.7,0-1.3,0.5-1.3,1.2v2.1c0,0.2-0.1,0.3-0.3,0.3c-0.2,0-0.3-0.2-0.3-0.3
			v-3.6c0-0.2,0.1-0.3,0.3-0.3c0.2,0,0.3,0.2,0.3,0.3V31c0.3-0.4,0.8-0.6,1.3-0.6C147.9,30.5,148.1,30.6,148.1,30.8z"/>
		<path class="st0" d="M152.5,32.3L152.5,32.3c0,0.3-0.1,0.5-0.4,0.5h-2.9c0.1,0.8,0.7,1.4,1.5,1.4c0.4,0,0.8-0.1,1.1-0.4
			c0.1-0.1,0.1-0.1,0.2-0.1c0.2,0,0.3,0.1,0.3,0.3c0,0.1,0,0.2-0.2,0.3c-0.4,0.3-0.9,0.5-1.4,0.5c-1.3,0-2.2-0.9-2.2-2.2
			c0-1.2,0.9-2.2,2.1-2.2C151.7,30.4,152.5,31.2,152.5,32.3z M149.2,32.2h2.6c0-0.7-0.5-1.2-1.2-1.2C149.9,31,149.3,31.5,149.2,32.2
			z"/>
		<path class="st0" d="M153.6,34.4v-5.9c0-0.2,0.1-0.3,0.3-0.3c0.2,0,0.3,0.2,0.3,0.3v5.9c0,0.2-0.1,0.3-0.3,0.3
			C153.8,34.7,153.6,34.6,153.6,34.4z"/>
		<path class="st0" d="M156.5,28.9c0,0.3-0.2,0.5-0.5,0.5c-0.3,0-0.5-0.2-0.5-0.5c0-0.3,0.2-0.5,0.5-0.5
			C156.3,28.4,156.5,28.7,156.5,28.9z M155.7,34.4v-3.6c0-0.2,0.1-0.3,0.3-0.3c0.2,0,0.3,0.2,0.3,0.3v3.6c0,0.2-0.2,0.3-0.3,0.3
			C155.9,34.7,155.7,34.6,155.7,34.4z"/>
		<path class="st0" d="M161.5,32.3L161.5,32.3c0,0.3-0.1,0.5-0.4,0.5h-2.9c0.1,0.8,0.7,1.4,1.5,1.4c0.4,0,0.8-0.1,1.1-0.4
			c0.1-0.1,0.1-0.1,0.2-0.1c0.2,0,0.3,0.1,0.3,0.3c0,0.1,0,0.2-0.2,0.3c-0.4,0.3-0.9,0.5-1.4,0.5c-1.3,0-2.2-0.9-2.2-2.2
			c0-1.2,0.9-2.2,2.1-2.2C160.7,30.4,161.5,31.2,161.5,32.3z M158.2,32.2h2.6c0-0.7-0.5-1.2-1.2-1.2C158.9,31,158.4,31.5,158.2,32.2
			z"/>
		<path class="st0" d="M163.4,29.5v0.9h0.8c0.2,0,0.3,0.1,0.3,0.3c0,0.2-0.1,0.3-0.3,0.3h-0.8v3.3c0,0.2-0.1,0.3-0.3,0.3
			c-0.2,0-0.3-0.2-0.3-0.3v-3.3h-0.4c-0.2,0-0.3-0.1-0.3-0.3c0-0.2,0.1-0.3,0.3-0.3h0.4v-1c0-0.8,0.5-1.3,1.3-1.3
			c0.2,0,0.3,0,0.4,0.1c0.2,0,0.2,0.1,0.2,0.3c0,0.2-0.1,0.3-0.3,0.3c-0.1,0-0.2,0-0.3,0C163.7,28.8,163.4,29,163.4,29.5z"/>
	</g>
</g>
</svg>
